<svg width="512" height="512" viewBox="0 0 512 512" fill="none" xmlns="http://www.w3.org/2000/svg">
<path d="M158.064 65.9382L208.131 252.644V47.3758C212.101 46.4501 216.113 45.6348 220.165 44.9335V252.663L276.477 42.6667C280.535 43.0338 284.56 43.5141 288.55 44.1045L231.784 255.792L344.62 60.5074C348.296 62.1598 351.917 63.9129 355.479 65.7632L242.222 261.777L403.91 100.214C406.825 102.969 409.663 105.805 412.419 108.718L250.707 270.304L446.897 157.122C448.748 160.681 450.502 164.3 452.155 167.973L256.767 280.693L468.562 223.987C469.152 227.973 469.633 231.995 470 236.051L259.843 292.318L467.728 292.318C467.026 296.367 466.21 300.376 465.283 304.343L259.811 304.343L446.698 354.38C444.779 358.053 442.756 361.662 440.633 365.205L256.749 315.972L410.334 404.576C407.427 407.563 404.433 410.466 401.356 413.281L250.745 326.393L364.71 440.269C361.105 442.374 357.433 444.376 353.698 446.272L242.224 334.884L315.263 461.293C311.264 462.423 307.217 463.439 303.127 464.339L231.791 340.878L266.185 469.137C263.119 469.268 260.037 469.333 256.939 469.333C255.882 469.333 254.827 469.326 253.773 469.31L220.165 343.98V466.187C216.113 465.486 212.101 464.671 208.131 463.745V344L178.497 454.507C174.718 453.018 170.991 451.424 167.32 449.73L196.502 340.905L141.721 435.715C138.329 433.544 135.003 431.281 131.746 428.929L186.097 334.864L109.982 410.919C107.067 408.165 104.229 405.329 101.473 402.417L177.563 326.386L83.452 380.678C81.0971 377.424 78.8318 374.1 76.6595 370.712L171.588 315.948L62.6241 345.122C60.9281 341.454 59.333 337.73 57.8425 333.953L168.435 304.343L48.5956 304.343C47.6689 300.376 46.8528 296.367 46.1507 292.318L168.403 292.318L43.0233 258.749C43.0078 257.688 43 256.625 43 255.56C43 252.473 43.0655 249.401 43.1952 246.346L171.571 280.717L47.9947 209.426C48.8945 205.339 49.9114 201.295 51.0417 197.299L177.601 270.311L66.0796 158.877C67.9769 155.145 69.9806 151.476 72.0867 147.874L186.098 261.796L99.1082 111.243C101.925 108.169 104.831 105.177 107.821 102.272L196.509 255.766L147.23 71.997C150.776 69.8764 154.389 67.8555 158.064 65.9382Z" fill="#FFBB00"/>
</svg>
